<svg xmlns="http://www.w3.org/2000/svg" data-name="Layer 1" width="440" height="385"
     viewBox="0 0 810.80372 385" xmlns:xlink="http://www.w3.org/1999/xlink">
    <path d="M716.777,519.50866H498.244a22.11531,22.11531,0,0,1-22.09021-22.09033V208.05576A22.1153,22.1153,0,0,1,498.244,185.96543H716.777a22.11533,22.11533,0,0,1,22.09033,22.09033V497.41833A22.11533,22.11533,0,0,1,716.777,519.50866Z"
          transform="translate(-194.59814 -107.07168)" fill="#e6e6e6"/>
    <path d="M701.41593,501.09753H513.60511a19.63607,19.63607,0,0,1-19.61377-19.61377V223.99033a19.63607,19.63607,0,0,1,19.61377-19.61377H701.41593a19.636,19.636,0,0,1,19.61377,19.61377V481.48376A19.636,19.636,0,0,1,701.41593,501.09753Z"
          transform="translate(-194.59814 -107.07168)" fill="#fff"/>
    <path d="M682.68044,253.31056H532.34059a4.90308,4.90308,0,1,1,0-9.80615H682.68044a4.90308,4.90308,0,1,1,0,9.80615Z"
          transform="translate(-194.59814 -107.07168)" fill="#e4e4e4"/>
    <path d="M682.68044,272.68507H532.34059a4.90332,4.90332,0,0,1,0-9.80664H682.68044a4.90332,4.90332,0,0,1,0,9.80664Z"
          transform="translate(-194.59814 -107.07168)" fill="#e4e4e4"/>
    <path d="M597.5093,292.05958H532.34059a4.90332,4.90332,0,0,1,0-9.80664H597.5093a4.90332,4.90332,0,0,1,0,9.80664Z"
          transform="translate(-194.59814 -107.07168)" fill="#e4e4e4"/>
    <path d="M682.68044,332.637H532.34059a4.90308,4.90308,0,1,1,0-9.80615H682.68044a4.90308,4.90308,0,1,1,0,9.80615Z"
          transform="translate(-194.59814 -107.07168)" fill="#e4e4e4"/>
    <path d="M682.68044,352.01152H532.34059a4.90332,4.90332,0,0,1,0-9.80664H682.68044a4.90332,4.90332,0,0,1,0,9.80664Z"
          transform="translate(-194.59814 -107.07168)" fill="#e4e4e4"/>
    <path d="M597.5093,371.386H532.34059a4.90333,4.90333,0,0,1,0-9.80665H597.5093a4.90332,4.90332,0,0,1,0,9.80665Z"
          transform="translate(-194.59814 -107.07168)" fill="#e4e4e4"/>
    <path d="M682.68044,411.96346H532.34059a4.90308,4.90308,0,1,1,0-9.80615H682.68044a4.90308,4.90308,0,1,1,0,9.80615Z"
          transform="translate(-194.59814 -107.07168)" fill="#e4e4e4"/>
    <path d="M682.68044,431.338H532.34059a4.90332,4.90332,0,1,1,0-9.80664H682.68044a4.90332,4.90332,0,1,1,0,9.80664Z"
          transform="translate(-194.59814 -107.07168)" fill="#e4e4e4"/>
    <path d="M597.5093,450.71249H532.34059a4.90332,4.90332,0,0,1,0-9.80664H597.5093a4.90332,4.90332,0,0,1,0,9.80664Z"
          transform="translate(-194.59814 -107.07168)" fill="#e4e4e4"/>
    <polygon
            points="369.608 244.215 206.272 104.506 96.539 104.506 96.539 102.448 207.032 102.448 370.946 242.651 369.608 244.215"
            fill="#2f2e41"/>
    <circle cx="96.53869" cy="103.47712" r="16.46545" fill="#049576"/>
    <path d="M349.84131,265.93187H199.50146a4.90308,4.90308,0,1,1,0-9.80616H349.84131a4.90308,4.90308,0,1,1,0,9.80616Z"
          transform="translate(-194.59814 -107.07168)" fill="#049576"/>
    <path d="M349.84131,285.30638H199.50146a4.90332,4.90332,0,0,1,0-9.80664H349.84131a4.90332,4.90332,0,0,1,0,9.80664Z"
          transform="translate(-194.59814 -107.07168)" fill="#049576"/>
    <path d="M264.67016,304.68089h-65.1687a4.90332,4.90332,0,0,1,0-9.80664h65.1687a4.90332,4.90332,0,0,1,0,9.80664Z"
          transform="translate(-194.59814 -107.07168)" fill="#049576"/>
    <polygon
            points="412.912 155.639 576.826 15.436 687.319 15.436 687.319 17.494 577.586 17.494 414.25 157.203 412.912 155.639"
            fill="#2f2e41"/>
    <circle cx="687.31936" cy="16.46545" r="16.46545" fill="#049576"/>
    <path d="M993.8731,178.34287H843.53325a4.90308,4.90308,0,1,1,0-9.80615H993.8731a4.90308,4.90308,0,1,1,0,9.80615Z"
          transform="translate(-194.59814 -107.07168)" fill="#049576"/>
    <path d="M993.8731,197.71738H843.53325a4.90332,4.90332,0,0,1,0-9.80664H993.8731a4.90332,4.90332,0,1,1,0,9.80664Z"
          transform="translate(-194.59814 -107.07168)" fill="#049576"/>
    <path d="M908.702,217.0919h-65.1687a4.90332,4.90332,0,0,1,0-9.80665H908.702a4.90332,4.90332,0,1,1,0,9.80665Z"
          transform="translate(-194.59814 -107.07168)" fill="#049576"/>
</svg>
